<svg xmlns="http://www.w3.org/2000/svg" xmlns:xlink="http://www.w3.org/1999/xlink" width="313.507" height="94.35" viewBox="0 0 313.507 94.35">
  <defs>
    <linearGradient id="linear-gradient" x1="0.5" x2="0.5" y2="1" gradientUnits="objectBoundingBox">
      <stop offset="0" stop-color="#fff"/>
      <stop offset="1" stop-color="#565656"/>
    </linearGradient>
    <filter id="Path_15" x="96.995" y="0" width="149.484" height="68.819" filterUnits="userSpaceOnUse">
      <feOffset dy="3" input="SourceAlpha"/>
      <feGaussianBlur stdDeviation="3" result="blur"/>
      <feFlood flood-opacity="0"/>
      <feComposite operator="in" in2="blur"/>
      <feComposite in="SourceGraphic"/>
    </filter>
    <filter id="Path_16" x="232.617" y="0" width="80.89" height="68.815" filterUnits="userSpaceOnUse">
      <feOffset dy="3" input="SourceAlpha"/>
      <feGaussianBlur stdDeviation="3" result="blur-2"/>
      <feFlood flood-opacity="0"/>
      <feComposite operator="in" in2="blur-2"/>
      <feComposite in="SourceGraphic"/>
    </filter>
    <filter id="Path_13" x="0" y="0" width="73.876" height="30.481" filterUnits="userSpaceOnUse">
      <feOffset dy="3" input="SourceAlpha"/>
      <feGaussianBlur stdDeviation="3" result="blur-3"/>
      <feFlood flood-opacity="0"/>
      <feComposite operator="in" in2="blur-3"/>
      <feComposite in="SourceGraphic"/>
    </filter>
  </defs>
  <g id="logo" transform="translate(-6.224 -13.25)">
    <g transform="matrix(1, 0, 0, 1, 6.22, 13.25)" filter="url(#Path_15)">
      <path id="Path_15-2" data-name="Path 15" d="M11.867,12.97H46.729a3.751,3.751,0,1,1,0,7.5H.407v.21a11.483,11.483,0,0,0,11.46,11.46H46.731a3.746,3.746,0,1,1,0,7.492H.407v.222a11.483,11.483,0,0,0,11.46,11.46H46.731A15.435,15.435,0,0,0,58.793,26.306,15.436,15.436,0,0,0,46.729,1.3H.407v.21a11.483,11.483,0,0,0,11.46,11.46ZM131.08,35.482V1.3h-.21a11.483,11.483,0,0,0-11.461,11.46V35.465q0,4.161-4.681,4.168H85.35c-3.12,0-4.667-1.393-4.667-4.168V12.76A11.483,11.483,0,0,0,69.223,1.3H69V35.489A14.937,14.937,0,0,0,73.766,46.8a16.216,16.216,0,0,0,11.592,4.513h29.37A16.219,16.219,0,0,0,126.321,46.8a14.926,14.926,0,0,0,4.765-11.313Z" transform="translate(105.99 5.1)" stroke="#000" stroke-width="0.8" fill="url(#linear-gradient)"/>
    </g>
    <g transform="matrix(1, 0, 0, 1, 6.22, 13.25)" filter="url(#Path_16)">
      <path id="Path_16-2" data-name="Path 16" d="M62.367,16.316V1.3h-.21A11.483,11.483,0,0,0,50.7,12.76V16.3q0,4.161-4.681,4.168H16.638c-3.122,0-4.667-1.393-4.667-4.168V12.76A11.483,11.483,0,0,0,.51,1.3H.288V16.316A14.966,14.966,0,0,0,5.051,27.641a16.258,16.258,0,0,0,11.592,4.5H25.49V51.315H37.173V32.142h8.835a16.259,16.259,0,0,0,11.592-4.5A14.967,14.967,0,0,0,62.367,16.316Z" transform="translate(241.73 5.1)" fill="#00cece" stroke="#000" stroke-width="0.8"/>
    </g>
    <path id="Path_17" data-name="Path 17" d="M21.591,13.52V4.528H.275V13.52Z" transform="translate(79.015 36.091)"/>
    <g transform="matrix(1, 0, 0, 1, 6.22, 13.25)" filter="url(#Path_13)">
      <path id="Path_13-2" data-name="Path 13" d="M.473,12.981H44.09A11.483,11.483,0,0,0,55.55,1.522V1.3H11.933A11.483,11.483,0,0,0,.473,12.76Z" transform="translate(8.93 5.1)" fill="#e6ac00" stroke="#000" stroke-width="0.8"/>
    </g>
    <path id="Path_14" data-name="Path 14" d="M14.172,15.924H44.09A11.471,11.471,0,0,0,55.55,4.253H11.933A11.483,11.483,0,0,0,.473,15.711V35.1H44.09A11.471,11.471,0,0,0,55.55,23.412H12.144V17.949a2.031,2.031,0,0,1,2.028-2.024Z" transform="translate(15.149 34.571)" stroke="#000" stroke-width="1" opacity="0.8" fill="url(#linear-gradient)"/>
    <path id="Path_18" data-name="Path 18" d="M0,28.691H5.781V23.234h7.275c4.351,0,8.38-.519,8.38-5.652v-5.26C21.436,7.158,17.148,7,12.926,7H0Zm12.049-17.3c2.046,0,3.605.39,3.605,2.728v1.91c0,2.339-1.591,2.76-3.605,2.76H5.781V11.38Zm13.319,5.937c0,5.2,3.864,5.91,8.054,5.91H39.2c4.807,0,7.859-.811,8.022-6.008v-4.19c0-5.2-3.767-6.048-8.022-6.048H33.391c-4.839,0-8.022,1.008-8.022,6.236ZM31.182,14.3a5.773,5.773,0,0,1,.168-1.43c.553-1.494,2.273-1.527,3.605-1.527h2.728c2.184,0,3.767.358,3.767,2.856l-.032,1.819c0,2.468-1.559,2.856-3.735,2.856H34.945a5.1,5.1,0,0,1-2.891-.617,2.414,2.414,0,0,1-.909-2.209Zm25.755,8.931V.5H51.152V23.234Zm3.93-5.91c0,4.514,3.508,5.91,7.469,5.91H80.1V19.4H70.058c-2.144,0-3.41-.422-3.41-2.794H81.163V13.231C81.163,8.62,77.915,7,73.725,7H68.3c-4.156,0-7.438,1.657-7.438,6.236ZM66.647,13c0-1.917,1.786-2.046,3.279-2.046h2.4c1.494,0,3.248.168,3.248,2.046v.066H66.644Zm18.415,10.23H92.37l3.8-5.164,3.767,5.164h7.34l-6.628-8.441L107.081,7H99.415l-3.248,4.351L92.888,7H85.222l6.463,7.8Z" transform="translate(19.044 78.909)"/>
  </g>
</svg>
