<?xml version="1.0" encoding="iso-8859-1"?>
<!-- Generator: Adobe Illustrator 16.0.0, SVG Export Plug-In . SVG Version: 6.00 Build 0)  -->
<!DOCTYPE svg PUBLIC "-//W3C//DTD SVG 1.1//EN" "http://www.w3.org/Graphics/SVG/1.1/DTD/svg11.dtd">
<svg version="1.1" id="Capa_1" xmlns="http://www.w3.org/2000/svg" xmlns:xlink="http://www.w3.org/1999/xlink" x="0px" y="0px"
	 width="249.967px" height="249.967px" viewBox="0 0 249.967 249.967" style="enable-background:new 0 0 249.967 249.967;"
	 xml:space="preserve">
<g>
	<g>
		<path style="fill:green;" d="M11.025,163.558h127.842c6.083,0,11.013-4.924,11.013-11.024V12.574c0-6.089-4.93-11.025-11.013-11.025H11.025
			C4.933,1.549,0,6.485,0,12.574v139.96C0,158.634,4.933,163.558,11.025,163.558z"/>
		<path style="fill:green;" d="M239.868,68.73c-11.301-19.356-60.019-25.076-74.688-26.361c-3.099-0.24-6.125,0.769-8.401,2.846
			c-2.293,2.105-3.578,5.044-3.578,8.13v112.422H11.025C4.933,165.768,0,170.704,0,176.793v37.457
			c0,6.089,4.933,11.025,11.025,11.025h21.812c4.618,13.414,17.222,23.143,32.188,23.143c14.961,0,27.565-9.729,32.177-23.143
			h68.992c4.611,13.414,17.222,23.143,32.18,23.143c14.964,0,27.568-9.729,32.18-23.143h7.5c6.083,0,11.013-4.937,11.013-11.025
			l-0.012-36.857C249.83,163.222,253.06,91.383,239.868,68.73z M70.007,225.276h-9.968c-4.194-1.91-7.134-6.113-7.134-11.025
			c0-4.888,2.945-9.104,7.134-11.013h9.968c4.198,1.909,7.137,6.125,7.137,11.013C77.144,219.163,74.205,223.366,70.007,225.276z
			 M203.371,225.276h-9.975c-4.197-1.91-7.133-6.113-7.133-11.025c0-4.888,2.948-9.104,7.133-11.013h9.975
			c4.191,1.909,7.134,6.125,7.134,11.013C210.504,219.163,207.556,223.366,203.371,225.276z"/>
	</g>
</g>
<g>
</g>
<g>
</g>
<g>
</g>
<g>
</g>
<g>
</g>
<g>
</g>
<g>
</g>
<g>
</g>
<g>
</g>
<g>
</g>
<g>
</g>
<g>
</g>
<g>
</g>
<g>
</g>
<g>
</g>
</svg>
